<?xml version="1.0" encoding="UTF-8" standalone="no"?>
<svg
   xmlns="http://www.w3.org/2000/svg"
   version="1.1">
  <defs>
    <symbol
       id="logo-qwars"
       viewBox="0 0 16 16">
      <path
         d="M 8.02,0 C 5.62,0 3.69,0.737 2.22,2.22 0.747,3.69 0.0137,5.61 0.0137,8 c 0,2.4 0.7333,4.3 2.2063,5.8 1.47,1.5 3.4,2.2 5.8,2.2 1.01,0 1.97,-0.2 2.88,-0.5 -0.4,0 -0.4,-0.1 -0.6,-0.5 L 10.1,14 C 9.36,14.2 8.68,14.2 8,14.2 6.24,14.2 4.82,13.7 3.75,12.6 2.67,11.4 2.13,9.88 2.13,8 2.13,6.11 2.67,4.6 3.75,3.46 4.84,2.29 6.26,1.71 8.02,1.71 c 1.77,0 3.18,0.58 4.28,1.75 1.1,1.14 1.6,2.65 1.6,4.52 0,1.94 -0.6,3.52 -1.8,4.82 l -2,-1.6 1.1,4 4.6,0.3 -2.1,-1.6 C 15.2,12.3 16,10.4 16,7.95 16,5.59 15.3,3.66 13.8,2.19 12.3,0.729 10.4,0 8.02,0 Z"/>
    </symbol>
  </defs>
</svg>
